<svg width="433" height="90" viewBox="0 0 433 90" fill="none" xmlns="http://www.w3.org/2000/svg">
<rect width="433" height="90" rx="6" fill="#151B23"/>
<path d="M17.0918 19.791H14.2441L13.5586 22H12.4746L15.2285 13.4688H16.1367L18.8438 22H17.7656L17.0918 19.791ZM14.5371 18.8477H16.8047L15.6797 15.1445L14.5371 18.8477ZM20.2266 22V15.6602H21.1992L21.2754 16.5977C21.3691 16.4648 21.4707 16.3438 21.5801 16.2344C21.6934 16.1211 21.8125 16.0234 21.9375 15.9414C22.125 15.8164 22.3281 15.7207 22.5469 15.6543C22.7695 15.584 23.0039 15.5469 23.25 15.543C23.582 15.543 23.8828 15.5898 24.1523 15.6836C24.4258 15.7773 24.6582 15.9238 24.8496 16.123C25.041 16.3223 25.1875 16.5762 25.2891 16.8848C25.3945 17.1895 25.4473 17.5527 25.4473 17.9746V22H24.3633V17.998C24.3633 17.7168 24.332 17.4785 24.2695 17.2832C24.207 17.0879 24.1152 16.9297 23.9941 16.8086C23.8691 16.6875 23.7168 16.5996 23.5371 16.5449C23.3613 16.4902 23.1582 16.4629 22.9277 16.4629C22.7285 16.4629 22.543 16.4922 22.3711 16.5508C22.1992 16.6055 22.041 16.6816 21.8965 16.7793C21.7793 16.8652 21.6699 16.9648 21.5684 17.0781C21.4707 17.1914 21.3848 17.3164 21.3105 17.4531V22H20.2266ZM27.2285 18.7773C27.2285 18.3047 27.2871 17.8711 27.4043 17.4766C27.5254 17.0781 27.6973 16.7363 27.9199 16.4512C28.1387 16.166 28.4043 15.9434 28.7168 15.7832C29.0293 15.623 29.3789 15.543 29.7656 15.543C30.1445 15.543 30.4746 15.6074 30.7559 15.7363C31.041 15.8613 31.2871 16.0449 31.4941 16.2871V13H32.5781V22H31.582L31.5352 21.332C31.3242 21.5898 31.0723 21.7852 30.7793 21.918C30.4863 22.0508 30.1445 22.1172 29.7539 22.1172C29.3711 22.1172 29.0234 22.0352 28.7109 21.8711C28.4023 21.707 28.1387 21.4805 27.9199 21.1914C27.7012 20.9023 27.5312 20.5625 27.4102 20.1719C27.2891 19.7773 27.2285 19.3535 27.2285 18.9004V18.7773ZM28.3125 18.9004C28.3125 19.209 28.3457 19.502 28.4121 19.7793C28.4785 20.0566 28.582 20.3008 28.7227 20.5117C28.8594 20.7227 29.0352 20.8906 29.25 21.0156C29.4648 21.1367 29.7227 21.1973 30.0234 21.1973C30.3867 21.1973 30.6875 21.1152 30.9258 20.9512C31.1641 20.7871 31.3535 20.5664 31.4941 20.2891V17.3477C31.3535 17.0898 31.1641 16.8789 30.9258 16.7148C30.6875 16.5469 30.3906 16.4629 30.0352 16.4629C29.7305 16.4629 29.4688 16.5254 29.25 16.6504C29.0352 16.7754 28.8594 16.9434 28.7227 17.1543C28.582 17.3691 28.4785 17.6172 28.4121 17.8984C28.3457 18.1758 28.3125 18.4688 28.3125 18.7773V18.9004ZM44.4141 14.125V15.6602H46.8281V16.498H44.4141V19.9434C44.4141 20.1895 44.4453 20.3926 44.5078 20.5527C44.5703 20.7129 44.6562 20.8398 44.7656 20.9336C44.875 21.0312 45 21.0996 45.1406 21.1387C45.2852 21.1777 45.4375 21.1973 45.5977 21.1973C45.7148 21.1973 45.8359 21.1914 45.9609 21.1797C46.0859 21.1641 46.209 21.1465 46.3301 21.127C46.4473 21.1074 46.5566 21.0879 46.6582 21.0684C46.7637 21.0449 46.8496 21.0254 46.916 21.0098L47.0684 21.7773C46.9785 21.832 46.8691 21.8809 46.7402 21.9238C46.6113 21.9629 46.4707 21.9961 46.3184 22.0234C46.166 22.0547 46.0039 22.0781 45.832 22.0938C45.6641 22.1094 45.4961 22.1172 45.3281 22.1172C45.0469 22.1172 44.7832 22.0781 44.5371 22C44.2949 21.918 44.084 21.7891 43.9043 21.6133C43.7246 21.4414 43.582 21.2188 43.4766 20.9453C43.375 20.668 43.3242 20.334 43.3242 19.9434V16.498H41.6602V15.6602H43.3242V14.125H44.4141ZM50.1387 16.6035C50.2246 16.4746 50.3203 16.3574 50.4258 16.252C50.5312 16.1426 50.6426 16.0469 50.7598 15.9648C50.9473 15.8281 51.1523 15.7246 51.375 15.6543C51.6016 15.584 51.8418 15.5469 52.0957 15.543C52.4277 15.543 52.7285 15.5918 52.998 15.6895C53.2715 15.7832 53.5039 15.9316 53.6953 16.1348C53.8867 16.3379 54.0332 16.5957 54.1348 16.9082C54.2402 17.2168 54.293 17.584 54.293 18.0098V22H53.209V17.998C53.209 17.748 53.1797 17.5293 53.1211 17.3418C53.0625 17.1504 52.9766 16.9922 52.8633 16.8672C52.7422 16.7305 52.5898 16.6289 52.4062 16.5625C52.2227 16.4922 52.0117 16.459 51.7734 16.4629C51.5781 16.4629 51.3926 16.4902 51.2168 16.5449C51.041 16.5996 50.8789 16.6777 50.7305 16.7793C50.6133 16.8574 50.5039 16.9492 50.4023 17.0547C50.3047 17.1562 50.2168 17.2695 50.1387 17.3945V22H49.0547V13H50.1387V16.6035ZM60.4277 22C60.3848 21.918 60.3496 21.8164 60.3223 21.6953C60.2988 21.5703 60.2812 21.4414 60.2695 21.3086C60.1602 21.418 60.0371 21.5215 59.9004 21.6191C59.7676 21.7168 59.6211 21.8027 59.4609 21.877C59.2969 21.9512 59.123 22.0098 58.9395 22.0527C58.7559 22.0957 58.5605 22.1172 58.3535 22.1172C58.0176 22.1172 57.7129 22.0684 57.4395 21.9707C57.1699 21.873 56.9414 21.7402 56.7539 21.5723C56.5625 21.4082 56.4141 21.2129 56.3086 20.9863C56.207 20.7559 56.1562 20.5078 56.1562 20.2422C56.1562 19.8945 56.2246 19.5898 56.3613 19.3281C56.502 19.0664 56.6992 18.8477 56.9531 18.6719C57.207 18.5 57.5117 18.3711 57.8672 18.2852C58.2266 18.1992 58.627 18.1562 59.0684 18.1562H60.252V17.6582C60.252 17.4668 60.2168 17.2949 60.1465 17.1426C60.0762 16.9902 59.9766 16.8594 59.8477 16.75C59.7188 16.6445 59.5605 16.5625 59.373 16.5039C59.1895 16.4453 58.9824 16.416 58.752 16.416C58.5371 16.416 58.3438 16.4434 58.1719 16.498C58.0039 16.5527 57.8613 16.625 57.7441 16.7148C57.627 16.8047 57.5352 16.9121 57.4688 17.0371C57.4062 17.1582 57.375 17.2852 57.375 17.418H56.2852C56.2891 17.1875 56.3477 16.9609 56.4609 16.7383C56.5781 16.5156 56.7461 16.3145 56.9648 16.1348C57.1797 15.959 57.4414 15.8164 57.75 15.707C58.0625 15.5977 58.416 15.543 58.8105 15.543C59.1699 15.543 59.5039 15.5879 59.8125 15.6777C60.1211 15.7637 60.3887 15.8945 60.6152 16.0703C60.8379 16.25 61.0137 16.4727 61.1426 16.7383C61.2715 17.0039 61.3359 17.3145 61.3359 17.6699V20.6172C61.3359 20.8281 61.3555 21.0527 61.3945 21.291C61.4336 21.5254 61.4883 21.7305 61.5586 21.9062V22H60.4277ZM58.5117 21.1738C58.7227 21.1738 58.9199 21.1465 59.1035 21.0918C59.2871 21.0371 59.4551 20.9648 59.6074 20.875C59.7559 20.7852 59.8848 20.6836 59.9941 20.5703C60.1035 20.4531 60.1895 20.332 60.252 20.207V18.9238H59.2441C58.8691 18.9238 58.541 18.957 58.2598 19.0234C57.9824 19.0859 57.7617 19.1836 57.5977 19.3164C57.4805 19.4102 57.3906 19.5215 57.3281 19.6504C57.2695 19.7793 57.2402 19.9258 57.2402 20.0898C57.2402 20.2461 57.2656 20.3906 57.3164 20.5234C57.3711 20.6562 57.4512 20.7695 57.5566 20.8633C57.6621 20.9609 57.7949 21.0371 57.9551 21.0918C58.1152 21.1465 58.3008 21.1738 58.5117 21.1738ZM66.0352 14.125V15.6602H68.4492V16.498H66.0352V19.9434C66.0352 20.1895 66.0664 20.3926 66.1289 20.5527C66.1914 20.7129 66.2773 20.8398 66.3867 20.9336C66.4961 21.0312 66.6211 21.0996 66.7617 21.1387C66.9062 21.1777 67.0586 21.1973 67.2188 21.1973C67.3359 21.1973 67.457 21.1914 67.582 21.1797C67.707 21.1641 67.8301 21.1465 67.9512 21.127C68.0684 21.1074 68.1777 21.0879 68.2793 21.0684C68.3848 21.0449 68.4707 21.0254 68.5371 21.0098L68.6895 21.7773C68.5996 21.832 68.4902 21.8809 68.3613 21.9238C68.2324 21.9629 68.0918 21.9961 67.9395 22.0234C67.7871 22.0547 67.625 22.0781 67.4531 22.0938C67.2852 22.1094 67.1172 22.1172 66.9492 22.1172C66.668 22.1172 66.4043 22.0781 66.1582 22C65.916 21.918 65.7051 21.7891 65.5254 21.6133C65.3457 21.4414 65.2031 21.2188 65.0977 20.9453C64.9961 20.668 64.9453 20.334 64.9453 19.9434V16.498H63.2812V15.6602H64.9453V14.125H66.0352ZM78.0527 15.6602H81.293V21.0625H83.3613V22H78.0527V21.0625H80.209V16.6035H78.0527V15.6602ZM80.0684 13.9961C80.0684 13.9023 80.082 13.8145 80.1094 13.7324C80.1406 13.6504 80.1875 13.5801 80.25 13.5215C80.3008 13.4707 80.3652 13.4316 80.4434 13.4043C80.5254 13.373 80.6172 13.3574 80.7188 13.3574C80.8203 13.3574 80.9102 13.373 80.9883 13.4043C81.0664 13.4316 81.1309 13.4707 81.1816 13.5215C81.2441 13.5762 81.291 13.6445 81.3223 13.7266C81.3535 13.8086 81.3691 13.8984 81.3691 13.9961C81.3691 14.1719 81.3145 14.3184 81.2051 14.4355C81.0957 14.5527 80.9336 14.6113 80.7188 14.6113C80.5 14.6113 80.3359 14.5527 80.2266 14.4355C80.1211 14.3184 80.0684 14.1719 80.0684 13.9961ZM89.3027 20.3184C89.3027 20.1895 89.2773 20.0742 89.2266 19.9727C89.1758 19.8672 89.0898 19.7715 88.9688 19.6855C88.8477 19.5996 88.6875 19.5215 88.4883 19.4512C88.2891 19.377 88.041 19.3105 87.7441 19.252C87.3809 19.1777 87.0488 19.0879 86.748 18.9824C86.4512 18.877 86.1973 18.75 85.9863 18.6016C85.7715 18.457 85.6055 18.2871 85.4883 18.0918C85.3711 17.8926 85.3125 17.6621 85.3125 17.4004C85.3125 17.1426 85.373 16.9023 85.4941 16.6797C85.6152 16.4531 85.7852 16.2559 86.0039 16.0879C86.2227 15.9199 86.4824 15.7871 86.7832 15.6895C87.0879 15.5918 87.4219 15.543 87.7852 15.543C88.1758 15.543 88.5273 15.5938 88.8398 15.6953C89.1523 15.7969 89.418 15.9375 89.6367 16.1172C89.8555 16.2969 90.0234 16.5078 90.1406 16.75C90.2617 16.9883 90.3223 17.2461 90.3223 17.5234H89.2383C89.2383 17.3867 89.2031 17.2539 89.1328 17.125C89.0625 16.9922 88.9648 16.875 88.8398 16.7734C88.7148 16.6719 88.5625 16.5898 88.3828 16.5273C88.207 16.4648 88.0078 16.4336 87.7852 16.4336C87.5547 16.4336 87.3516 16.459 87.1758 16.5098C87.0039 16.5605 86.8613 16.6289 86.748 16.7148C86.6309 16.8008 86.543 16.9004 86.4844 17.0137C86.4258 17.127 86.3965 17.2441 86.3965 17.3652C86.3965 17.4902 86.4199 17.6016 86.4668 17.6992C86.5137 17.7969 86.5957 17.8848 86.7129 17.9629C86.8262 18.041 86.9785 18.1113 87.1699 18.1738C87.3652 18.2363 87.6113 18.2969 87.9082 18.3555C88.2988 18.4375 88.6484 18.5332 88.957 18.6426C89.2656 18.748 89.5254 18.875 89.7363 19.0234C89.9473 19.1758 90.1074 19.3516 90.2168 19.5508C90.3301 19.75 90.3867 19.9805 90.3867 20.2422C90.3867 20.5234 90.3223 20.7793 90.1934 21.0098C90.0684 21.2402 89.8926 21.4375 89.666 21.6016C89.4395 21.7656 89.168 21.8926 88.8516 21.9824C88.5352 22.0723 88.1895 22.1172 87.8145 22.1172C87.3848 22.1172 87.002 22.0605 86.666 21.9473C86.3301 21.8301 86.0469 21.6758 85.8164 21.4844C85.582 21.2969 85.4023 21.0781 85.2773 20.8281C85.1562 20.5781 85.0957 20.3184 85.0957 20.0488H86.1797C86.1953 20.2715 86.2539 20.459 86.3555 20.6113C86.4609 20.7637 86.5918 20.8867 86.748 20.9805C86.9004 21.0742 87.0703 21.1406 87.2578 21.1797C87.4453 21.2188 87.6309 21.2383 87.8145 21.2383C88.1035 21.2383 88.3555 21.2051 88.5703 21.1387C88.7852 21.0684 88.9531 20.9727 89.0742 20.8516C89.1484 20.7773 89.2051 20.6953 89.2441 20.6055C89.2832 20.5156 89.3027 20.4199 89.3027 20.3184ZM102.07 14.125V15.6602H104.484V16.498H102.07V19.9434C102.07 20.1895 102.102 20.3926 102.164 20.5527C102.227 20.7129 102.312 20.8398 102.422 20.9336C102.531 21.0312 102.656 21.0996 102.797 21.1387C102.941 21.1777 103.094 21.1973 103.254 21.1973C103.371 21.1973 103.492 21.1914 103.617 21.1797C103.742 21.1641 103.865 21.1465 103.986 21.127C104.104 21.1074 104.213 21.0879 104.314 21.0684C104.42 21.0449 104.506 21.0254 104.572 21.0098L104.725 21.7773C104.635 21.832 104.525 21.8809 104.396 21.9238C104.268 21.9629 104.127 21.9961 103.975 22.0234C103.822 22.0547 103.66 22.0781 103.488 22.0938C103.32 22.1094 103.152 22.1172 102.984 22.1172C102.703 22.1172 102.439 22.0781 102.193 22C101.951 21.918 101.74 21.7891 101.561 21.6133C101.381 21.4414 101.238 21.2188 101.133 20.9453C101.031 20.668 100.98 20.334 100.98 19.9434V16.498H99.3164V15.6602H100.98V14.125H102.07ZM109.512 22.1172C109.066 22.1172 108.656 22.041 108.281 21.8887C107.91 21.7363 107.592 21.5234 107.326 21.25C107.061 20.9766 106.854 20.6523 106.705 20.2773C106.557 19.9023 106.482 19.4941 106.482 19.0527V18.8066C106.482 18.2949 106.564 17.8379 106.729 17.4355C106.893 17.0293 107.111 16.6855 107.385 16.4043C107.654 16.127 107.961 15.9141 108.305 15.7656C108.652 15.6172 109.008 15.543 109.371 15.543C109.828 15.543 110.227 15.623 110.566 15.7832C110.91 15.9395 111.195 16.1562 111.422 16.4336C111.648 16.7148 111.816 17.0449 111.926 17.4238C112.039 17.8027 112.096 18.2129 112.096 18.6543V19.1406H107.566V19.1816C107.594 19.4902 107.654 19.7617 107.748 19.9961C107.846 20.2305 107.979 20.4375 108.146 20.6172C108.318 20.8086 108.525 20.959 108.768 21.0684C109.01 21.1777 109.277 21.2324 109.57 21.2324C109.957 21.2324 110.301 21.1543 110.602 20.998C110.902 20.8418 111.152 20.6348 111.352 20.377L112.014 20.8926C111.803 21.2129 111.486 21.498 111.064 21.748C110.646 21.9941 110.129 22.1172 109.512 22.1172ZM109.371 16.4336C109.152 16.4336 108.945 16.4746 108.75 16.5566C108.555 16.6348 108.379 16.75 108.223 16.9023C108.066 17.0586 107.934 17.25 107.824 17.4766C107.719 17.6992 107.645 17.957 107.602 18.25H111.012V18.1973C111.012 18.002 110.975 17.793 110.9 17.5703C110.826 17.3438 110.723 17.1484 110.59 16.9844C110.457 16.8203 110.289 16.6875 110.086 16.5859C109.887 16.4844 109.648 16.4336 109.371 16.4336ZM118.131 20.3184C118.131 20.1895 118.105 20.0742 118.055 19.9727C118.004 19.8672 117.918 19.7715 117.797 19.6855C117.676 19.5996 117.516 19.5215 117.316 19.4512C117.117 19.377 116.869 19.3105 116.572 19.252C116.209 19.1777 115.877 19.0879 115.576 18.9824C115.279 18.877 115.025 18.75 114.814 18.6016C114.6 18.457 114.434 18.2871 114.316 18.0918C114.199 17.8926 114.141 17.6621 114.141 17.4004C114.141 17.1426 114.201 16.9023 114.322 16.6797C114.443 16.4531 114.613 16.2559 114.832 16.0879C115.051 15.9199 115.311 15.7871 115.611 15.6895C115.916 15.5918 116.25 15.543 116.613 15.543C117.004 15.543 117.355 15.5938 117.668 15.6953C117.98 15.7969 118.246 15.9375 118.465 16.1172C118.684 16.2969 118.852 16.5078 118.969 16.75C119.09 16.9883 119.15 17.2461 119.15 17.5234H118.066C118.066 17.3867 118.031 17.2539 117.961 17.125C117.891 16.9922 117.793 16.875 117.668 16.7734C117.543 16.6719 117.391 16.5898 117.211 16.5273C117.035 16.4648 116.836 16.4336 116.613 16.4336C116.383 16.4336 116.18 16.459 116.004 16.5098C115.832 16.5605 115.689 16.6289 115.576 16.7148C115.459 16.8008 115.371 16.9004 115.312 17.0137C115.254 17.127 115.225 17.2441 115.225 17.3652C115.225 17.4902 115.248 17.6016 115.295 17.6992C115.342 17.7969 115.424 17.8848 115.541 17.9629C115.654 18.041 115.807 18.1113 115.998 18.1738C116.193 18.2363 116.439 18.2969 116.736 18.3555C117.127 18.4375 117.477 18.5332 117.785 18.6426C118.094 18.748 118.354 18.875 118.564 19.0234C118.775 19.1758 118.936 19.3516 119.045 19.5508C119.158 19.75 119.215 19.9805 119.215 20.2422C119.215 20.5234 119.15 20.7793 119.021 21.0098C118.896 21.2402 118.721 21.4375 118.494 21.6016C118.268 21.7656 117.996 21.8926 117.68 21.9824C117.363 22.0723 117.018 22.1172 116.643 22.1172C116.213 22.1172 115.83 22.0605 115.494 21.9473C115.158 21.8301 114.875 21.6758 114.645 21.4844C114.41 21.2969 114.23 21.0781 114.105 20.8281C113.984 20.5781 113.924 20.3184 113.924 20.0488H115.008C115.023 20.2715 115.082 20.459 115.184 20.6113C115.289 20.7637 115.42 20.8867 115.576 20.9805C115.729 21.0742 115.898 21.1406 116.086 21.1797C116.273 21.2188 116.459 21.2383 116.643 21.2383C116.932 21.2383 117.184 21.2051 117.398 21.1387C117.613 21.0684 117.781 20.9727 117.902 20.8516C117.977 20.7773 118.033 20.6953 118.072 20.6055C118.111 20.5156 118.131 20.4199 118.131 20.3184ZM123.691 14.125V15.6602H126.105V16.498H123.691V19.9434C123.691 20.1895 123.723 20.3926 123.785 20.5527C123.848 20.7129 123.934 20.8398 124.043 20.9336C124.152 21.0312 124.277 21.0996 124.418 21.1387C124.562 21.1777 124.715 21.1973 124.875 21.1973C124.992 21.1973 125.113 21.1914 125.238 21.1797C125.363 21.1641 125.486 21.1465 125.607 21.127C125.725 21.1074 125.834 21.0879 125.936 21.0684C126.041 21.0449 126.127 21.0254 126.193 21.0098L126.346 21.7773C126.256 21.832 126.146 21.8809 126.018 21.9238C125.889 21.9629 125.748 21.9961 125.596 22.0234C125.443 22.0547 125.281 22.0781 125.109 22.0938C124.941 22.1094 124.773 22.1172 124.605 22.1172C124.324 22.1172 124.061 22.0781 123.814 22C123.572 21.918 123.361 21.7891 123.182 21.6133C123.002 21.4414 122.859 21.2188 122.754 20.9453C122.652 20.668 122.602 20.334 122.602 19.9434V16.498H120.938V15.6602H122.602V14.125H123.691ZM136.148 22L134.801 15.6602H135.762L136.5 19.7031L136.629 20.6113L136.787 19.7031L137.801 15.6602H138.498L139.506 19.7031L139.676 20.6992L139.834 19.7031L140.537 15.6602H141.498L140.15 22H139.295L138.305 18.1152L138.141 17.1309L137.982 18.1152L137.004 22H136.148ZM142.916 15.6602H146.156V21.0625H148.225V22H142.916V21.0625H145.072V16.6035H142.916V15.6602ZM144.932 13.9961C144.932 13.9023 144.945 13.8145 144.973 13.7324C145.004 13.6504 145.051 13.5801 145.113 13.5215C145.164 13.4707 145.229 13.4316 145.307 13.4043C145.389 13.373 145.48 13.3574 145.582 13.3574C145.684 13.3574 145.773 13.373 145.852 13.4043C145.93 13.4316 145.994 13.4707 146.045 13.5215C146.107 13.5762 146.154 13.6445 146.186 13.7266C146.217 13.8086 146.232 13.8984 146.232 13.9961C146.232 14.1719 146.178 14.3184 146.068 14.4355C145.959 14.5527 145.797 14.6113 145.582 14.6113C145.363 14.6113 145.199 14.5527 145.09 14.4355C144.984 14.3184 144.932 14.1719 144.932 13.9961ZM152.52 14.125V15.6602H154.934V16.498H152.52V19.9434C152.52 20.1895 152.551 20.3926 152.613 20.5527C152.676 20.7129 152.762 20.8398 152.871 20.9336C152.98 21.0312 153.105 21.0996 153.246 21.1387C153.391 21.1777 153.543 21.1973 153.703 21.1973C153.82 21.1973 153.941 21.1914 154.066 21.1797C154.191 21.1641 154.314 21.1465 154.436 21.127C154.553 21.1074 154.662 21.0879 154.764 21.0684C154.869 21.0449 154.955 21.0254 155.021 21.0098L155.174 21.7773C155.084 21.832 154.975 21.8809 154.846 21.9238C154.717 21.9629 154.576 21.9961 154.424 22.0234C154.271 22.0547 154.109 22.0781 153.938 22.0938C153.77 22.1094 153.602 22.1172 153.434 22.1172C153.152 22.1172 152.889 22.0781 152.643 22C152.4 21.918 152.189 21.7891 152.01 21.6133C151.83 21.4414 151.688 21.2188 151.582 20.9453C151.48 20.668 151.43 20.334 151.43 19.9434V16.498H149.766V15.6602H151.43V14.125H152.52ZM158.244 16.6035C158.33 16.4746 158.426 16.3574 158.531 16.252C158.637 16.1426 158.748 16.0469 158.865 15.9648C159.053 15.8281 159.258 15.7246 159.48 15.6543C159.707 15.584 159.947 15.5469 160.201 15.543C160.533 15.543 160.834 15.5918 161.104 15.6895C161.377 15.7832 161.609 15.9316 161.801 16.1348C161.992 16.3379 162.139 16.5957 162.24 16.9082C162.346 17.2168 162.398 17.584 162.398 18.0098V22H161.314V17.998C161.314 17.748 161.285 17.5293 161.227 17.3418C161.168 17.1504 161.082 16.9922 160.969 16.8672C160.848 16.7305 160.695 16.6289 160.512 16.5625C160.328 16.4922 160.117 16.459 159.879 16.4629C159.684 16.4629 159.498 16.4902 159.322 16.5449C159.146 16.5996 158.984 16.6777 158.836 16.7793C158.719 16.8574 158.609 16.9492 158.508 17.0547C158.41 17.1562 158.322 17.2695 158.244 17.3945V22H157.16V13H158.244V16.6035ZM175.787 20.3184C175.787 20.1895 175.762 20.0742 175.711 19.9727C175.66 19.8672 175.574 19.7715 175.453 19.6855C175.332 19.5996 175.172 19.5215 174.973 19.4512C174.773 19.377 174.525 19.3105 174.229 19.252C173.865 19.1777 173.533 19.0879 173.232 18.9824C172.936 18.877 172.682 18.75 172.471 18.6016C172.256 18.457 172.09 18.2871 171.973 18.0918C171.855 17.8926 171.797 17.6621 171.797 17.4004C171.797 17.1426 171.857 16.9023 171.979 16.6797C172.1 16.4531 172.27 16.2559 172.488 16.0879C172.707 15.9199 172.967 15.7871 173.268 15.6895C173.572 15.5918 173.906 15.543 174.27 15.543C174.66 15.543 175.012 15.5938 175.324 15.6953C175.637 15.7969 175.902 15.9375 176.121 16.1172C176.34 16.2969 176.508 16.5078 176.625 16.75C176.746 16.9883 176.807 17.2461 176.807 17.5234H175.723C175.723 17.3867 175.688 17.2539 175.617 17.125C175.547 16.9922 175.449 16.875 175.324 16.7734C175.199 16.6719 175.047 16.5898 174.867 16.5273C174.691 16.4648 174.492 16.4336 174.27 16.4336C174.039 16.4336 173.836 16.459 173.66 16.5098C173.488 16.5605 173.346 16.6289 173.232 16.7148C173.115 16.8008 173.027 16.9004 172.969 17.0137C172.91 17.127 172.881 17.2441 172.881 17.3652C172.881 17.4902 172.904 17.6016 172.951 17.6992C172.998 17.7969 173.08 17.8848 173.197 17.9629C173.311 18.041 173.463 18.1113 173.654 18.1738C173.85 18.2363 174.096 18.2969 174.393 18.3555C174.783 18.4375 175.133 18.5332 175.441 18.6426C175.75 18.748 176.01 18.875 176.221 19.0234C176.432 19.1758 176.592 19.3516 176.701 19.5508C176.814 19.75 176.871 19.9805 176.871 20.2422C176.871 20.5234 176.807 20.7793 176.678 21.0098C176.553 21.2402 176.377 21.4375 176.15 21.6016C175.924 21.7656 175.652 21.8926 175.336 21.9824C175.02 22.0723 174.674 22.1172 174.299 22.1172C173.869 22.1172 173.486 22.0605 173.15 21.9473C172.814 21.8301 172.531 21.6758 172.301 21.4844C172.066 21.2969 171.887 21.0781 171.762 20.8281C171.641 20.5781 171.58 20.3184 171.58 20.0488H172.664C172.68 20.2715 172.738 20.459 172.84 20.6113C172.945 20.7637 173.076 20.8867 173.232 20.9805C173.385 21.0742 173.555 21.1406 173.742 21.1797C173.93 21.2188 174.115 21.2383 174.299 21.2383C174.588 21.2383 174.84 21.2051 175.055 21.1387C175.27 21.0684 175.438 20.9727 175.559 20.8516C175.633 20.7773 175.689 20.6953 175.729 20.6055C175.768 20.5156 175.787 20.4199 175.787 20.3184ZM180.943 22L178.336 15.6602H179.449L181.266 20.4414L181.365 20.834L181.471 20.4414L183.246 15.6602H184.354L181.77 22H180.943ZM185.789 18.7773C185.789 18.3047 185.846 17.8711 185.959 17.4766C186.076 17.0781 186.244 16.7363 186.463 16.4512C186.682 16.166 186.947 15.9434 187.26 15.7832C187.572 15.623 187.926 15.543 188.32 15.543C188.574 15.543 188.807 15.5723 189.018 15.6309C189.232 15.6895 189.426 15.7754 189.598 15.8887C189.691 15.9473 189.779 16.0156 189.861 16.0938C189.947 16.1719 190.027 16.2578 190.102 16.3516L190.154 15.6602H191.139V21.8652C191.139 22.2832 191.072 22.6543 190.939 22.9785C190.811 23.3027 190.629 23.5781 190.395 23.8047C190.156 24.0312 189.873 24.2031 189.545 24.3203C189.217 24.4375 188.854 24.4961 188.455 24.4961C188.291 24.4961 188.104 24.4766 187.893 24.4375C187.682 24.4023 187.469 24.3418 187.254 24.2559C187.035 24.1738 186.824 24.0625 186.621 23.9219C186.422 23.7812 186.25 23.6074 186.105 23.4004L186.668 22.75C186.801 22.9102 186.938 23.0449 187.078 23.1543C187.219 23.2676 187.361 23.3574 187.506 23.4238C187.65 23.4902 187.795 23.5371 187.939 23.5645C188.084 23.5957 188.229 23.6113 188.373 23.6113C188.631 23.6113 188.863 23.5742 189.07 23.5C189.277 23.4258 189.455 23.3164 189.604 23.1719C189.748 23.0312 189.859 22.8555 189.938 22.6445C190.016 22.4336 190.055 22.1914 190.055 21.918V21.373C189.973 21.4668 189.885 21.5527 189.791 21.6309C189.701 21.709 189.604 21.7773 189.498 21.8359C189.334 21.9258 189.152 21.9941 188.953 22.041C188.754 22.0918 188.539 22.1172 188.309 22.1172C187.922 22.1172 187.572 22.0352 187.26 21.8711C186.947 21.707 186.684 21.4805 186.469 21.1914C186.25 20.9023 186.082 20.5625 185.965 20.1719C185.848 19.7773 185.789 19.3535 185.789 18.9004V18.7773ZM186.873 18.9004C186.873 19.209 186.904 19.502 186.967 19.7793C187.033 20.0566 187.137 20.3008 187.277 20.5117C187.414 20.7227 187.59 20.8906 187.805 21.0156C188.02 21.1367 188.277 21.1973 188.578 21.1973C188.766 21.1973 188.934 21.1758 189.082 21.1328C189.234 21.0859 189.371 21.0215 189.492 20.9395C189.609 20.8574 189.715 20.7598 189.809 20.6465C189.902 20.5332 189.984 20.4082 190.055 20.2715V17.3652C189.984 17.2324 189.902 17.1113 189.809 17.002C189.715 16.8926 189.607 16.7969 189.486 16.7148C189.365 16.6367 189.23 16.5762 189.082 16.5332C188.934 16.4863 188.77 16.4629 188.59 16.4629C188.285 16.4629 188.023 16.5254 187.805 16.6504C187.59 16.7754 187.414 16.9434 187.277 17.1543C187.137 17.3691 187.033 17.6172 186.967 17.8984C186.904 18.1758 186.873 18.4688 186.873 18.7773V18.9004Z" fill="white"/>
</svg>
